<svg id="_01-certificate" data-name="01-certificate" xmlns="http://www.w3.org/2000/svg" viewBox="0 0 48 48"><title>01-certificate</title><path d="M24,39l-4,8-2-4-4,2,3.82-8.59a2.786,2.786,0,0,0,.35.42,4,4,0,0,0,3.17,1.14A3.988,3.988,0,0,0,24,39Z" style="fill:#ffb37d"/><path d="M30.18,36.41,34,45l-4-2-2,4-4-8a3.988,3.988,0,0,0,2.66-1.03,4,4,0,0,0,3.17-1.14A2.786,2.786,0,0,0,30.18,36.41Z" style="fill:#ffb37d"/><circle cx="24" cy="31" r="4" style="fill:#b079ff"/><path d="M31.45,29a3.911,3.911,0,0,1,0,4,3.983,3.983,0,0,1-.48.66,3.954,3.954,0,0,1-.79,2.75,2.786,2.786,0,0,1-.35.42,4,4,0,0,1-3.17,1.14,3.95,3.95,0,0,1-5.32,0,4,4,0,0,1-3.17-1.14,2.786,2.786,0,0,1-.35-.42,3.954,3.954,0,0,1-.79-2.75,3.983,3.983,0,0,1-.48-.66,3.911,3.911,0,0,1,0-4,3.983,3.983,0,0,1,.48-.66,3.953,3.953,0,0,1,4.31-4.31,3.95,3.95,0,0,1,5.32,0,3.953,3.953,0,0,1,4.31,4.31A3.983,3.983,0,0,1,31.45,29ZM28,31a4,4,0,1,0-4,4A4,4,0,0,0,28,31Z" style="fill:#fff978"/><circle cx="24" cy="14" r="2" style="fill:#7a6bff"/><path d="M43,9V25a4,4,0,0,0-4,4H31.45a3.983,3.983,0,0,0-.48-.66,3.953,3.953,0,0,0-4.31-4.31,3.95,3.95,0,0,0-5.32,0,3.953,3.953,0,0,0-4.31,4.31,3.983,3.983,0,0,0-.48.66H9a4,4,0,0,0-4-4V9A4,4,0,0,0,9,5H39A4,4,0,0,0,43,9ZM26,14a2,2,0,1,0-2,2A2.006,2.006,0,0,0,26,14Z" style="fill:#fff"/><path d="M47,1V33H31.45a3.911,3.911,0,0,0,0-4H39a4,4,0,0,1,4-4V9a4,4,0,0,1-4-4H9A4,4,0,0,1,5,9V25a4,4,0,0,1,4,4h7.55a3.911,3.911,0,0,0,0,4H1V1Z" style="fill:#b785ff"/><ellipse cx="25.682" cy="29.708" rx="0.825" ry="1.148" transform="translate(-13.486 26.874) rotate(-45.02)" style="fill:#f6fafd"/><ellipse cx="22.427" cy="31.208" rx="0.413" ry="0.574" transform="translate(-15.501 25.012) rotate(-45.02)" style="fill:#f6fafd"/><path d="M24,33a3.989,3.989,0,0,1-3.859-3,4,4,0,1,0,7.718,0A3.989,3.989,0,0,1,24,33Z" style="fill:#976efa"/><path d="M19.627,39.746,18,43l2,4,3.064-6.127a4.069,4.069,0,0,1-1.724-.9A4.155,4.155,0,0,1,19.627,39.746Z" style="fill:#fb9881"/><path d="M26.66,39.97a4.069,4.069,0,0,1-1.724.9L28,47l2-4-1.627-3.254A4.155,4.155,0,0,1,26.66,39.97Z" style="fill:#fb9881"/><path d="M21.34,37.97a4.2,4.2,0,0,1-.816-.017l-.9,1.793a4.155,4.155,0,0,0,1.713.224,4.069,4.069,0,0,0,1.724.9L24,39A3.988,3.988,0,0,1,21.34,37.97Z" style="fill:#ff8488"/><path d="M18.17,38.83a3.891,3.891,0,0,0,1.457.916l.9-1.793A3.937,3.937,0,0,1,18.17,36.83a2.786,2.786,0,0,1-.35-.42l-.493,1.11a3.819,3.819,0,0,0,.493.89A2.786,2.786,0,0,0,18.17,38.83Z" style="fill:#fb9881"/><path d="M28.373,39.746l-.9-1.793a4.2,4.2,0,0,1-.816.017A3.988,3.988,0,0,1,24,39l.936,1.873a4.069,4.069,0,0,0,1.724-.9A4.155,4.155,0,0,0,28.373,39.746Z" style="fill:#ff8488"/><path d="M29.83,36.83a3.937,3.937,0,0,1-2.354,1.123l.9,1.793a3.891,3.891,0,0,0,1.457-.916,2.786,2.786,0,0,0,.35-.42,3.819,3.819,0,0,0,.493-.89l-.493-1.11A2.786,2.786,0,0,1,29.83,36.83Z" style="fill:#fb9881"/><path d="M33.312,28.5a4.917,4.917,0,0,0-.6-.825,4.943,4.943,0,0,0-5.388-5.388,4.939,4.939,0,0,0-6.65,0,4.943,4.943,0,0,0-5.388,5.388A5.114,5.114,0,0,0,14.432,29H16.55a3.983,3.983,0,0,1,.48-.66,3.953,3.953,0,0,1,4.31-4.31,3.95,3.95,0,0,1,5.32,0,3.953,3.953,0,0,1,4.31,4.31,3.983,3.983,0,0,1,.48.66h2.118A4.9,4.9,0,0,0,33.312,28.5Z" style="fill:#e1e7f7"/><path d="M16.306,32.514A3.932,3.932,0,0,1,16.132,32a3.921,3.921,0,0,1,.174-2.513v0A4.116,4.116,0,0,1,16.55,29H14.432a4.963,4.963,0,0,0,0,4H16.55a4.053,4.053,0,0,1-.243-.484Z" style="fill:#a672f1"/><path d="M33.887,30a4.839,4.839,0,0,0-.319-1H31.45a4.116,4.116,0,0,1,.243.483v0a3.928,3.928,0,0,1,0,3.027v0A4.053,4.053,0,0,1,31.45,33h2.118a4.721,4.721,0,0,0,.319-3Z" style="fill:#a672f1"/><path d="M46,32H34v2H47a1,1,0,0,0,1-1V22H46Z"/><rect x="46" y="18" width="2" height="2"/><path d="M47,0H1A1,1,0,0,0,0,1V33a1,1,0,0,0,1,1H14V32H2V2H46V16h2V1A1,1,0,0,0,47,0Z"/><path d="M40,29a3,3,0,0,1,3-3,1,1,0,0,0,1-1V22H42v2.1A5.013,5.013,0,0,0,38.1,28H34v2h5A1,1,0,0,0,40,29Z"/><path d="M44,9a1,1,0,0,0-1-1,3,3,0,0,1-3-3,1,1,0,0,0-1-1H9A1,1,0,0,0,8,5,3,3,0,0,1,5,8,1,1,0,0,0,4,9v3H6V9.9A5.013,5.013,0,0,0,9.9,6H38.1A5.013,5.013,0,0,0,42,9.9V20h2Z"/><path d="M4,25a1,1,0,0,0,1,1,3,3,0,0,1,3,3,1,1,0,0,0,1,1h5V28H9.9A5.013,5.013,0,0,0,6,24.1V14H4Z"/><path d="M27,14a3,3,0,1,0-3,3A3,3,0,0,0,27,14Zm-4,0a1,1,0,1,1,1,1A1,1,0,0,1,23,14Z"/><rect x="29" y="10" width="8" height="2"/><rect x="11" y="10" width="8" height="2"/><rect x="29" y="14" width="8" height="2"/><rect x="11" y="14" width="8" height="2"/><rect x="11" y="18" width="26" height="2"/><path d="M24,36a5,5,0,1,0-5-5A5.006,5.006,0,0,0,24,36Zm0-8a3,3,0,1,1-3,3A3,3,0,0,1,24,28Z"/><path d="M31.31,36.486A4.993,4.993,0,0,0,31.982,34a4.929,4.929,0,0,0,0-6,4.937,4.937,0,0,0-4.969-4.982H27a5.047,5.047,0,0,0-6,0h-.012A4.937,4.937,0,0,0,16.018,28a4.929,4.929,0,0,0,0,6,5,5,0,0,0,.672,2.486l-3.6,8.108a1,1,0,0,0,1.361,1.3l3.106-1.553,1.552,3.105a1,1,0,0,0,1.79,0L24,41.236l3.105,6.211a1,1,0,0,0,1.79,0l1.552-3.105L33.553,45.9a1,1,0,0,0,1.361-1.3ZM17.777,29.008a1,1,0,0,0,.252-.753,2.949,2.949,0,0,1,3.226-3.226,1,1,0,0,0,.753-.252,3.016,3.016,0,0,1,3.985,0,.994.994,0,0,0,.752.252,2.949,2.949,0,0,1,3.226,3.226,1,1,0,0,0,.252.753,2.942,2.942,0,0,1,0,3.984,1,1,0,0,0-.252.753,2.949,2.949,0,0,1-3.226,3.226,1.011,1.011,0,0,0-.753.252,3.016,3.016,0,0,1-3.985,0,1,1,0,0,0-.667-.256.806.806,0,0,0-.085,0,2.949,2.949,0,0,1-3.226-3.226,1,1,0,0,0-.252-.753,2.942,2.942,0,0,1,0-3.984ZM20,44.764,18.9,42.553a1,1,0,0,0-1.342-.448l-1.507.754,2.109-4.747a4.635,4.635,0,0,0,2.845.87,5.025,5.025,0,0,0,1.5.777Zm10.447-2.659a1,1,0,0,0-1.342.448L28,44.764l-2.5-5.005a5.013,5.013,0,0,0,1.5-.777h.013a4.984,4.984,0,0,0,2.828-.878l2.113,4.755Z"/></svg>